<svg id="Layer_1" data-name="Layer 1" xmlns="http://www.w3.org/2000/svg" viewBox="0 0 17.01 17.01"><defs><style>.cls-1{fill:#0083ca;}</style></defs><title>10</title><path class="cls-1" d="M12.21,13.55v0.1c1.56-.07,3.15-1.59,3.15-4.19s-1.59-4.13-3.15-4.19v0.1c1.37,0.21,1.9,1.77,1.9,4.09s-0.53,3.88-1.9,4.09m-0.38.1v-0.1c-1.37-.21-1.89-1.77-1.89-4.09s0.53-3.88,1.89-4.09V5.27c-1.56.07-3.15,1.59-3.15,4.19s1.59,4.13,3.15,4.19M5.51,5.59v8h1.2V5.29ZM4.05,6v0.3H5.19V5.7Z" transform="translate(-0.71 -0.71)"/><path class="cls-1" d="M9.21,17.72a8.5,8.5,0,1,1,8.5-8.5A8.51,8.51,0,0,1,9.21,17.72Zm0-16.29A7.79,7.79,0,1,0,17,9.21,7.79,7.79,0,0,0,9.21,1.43Z" transform="translate(-0.71 -0.71)"/></svg>