<svg id="Layer_1" data-name="Layer 1" xmlns="http://www.w3.org/2000/svg" viewBox="0 0 17.01 17.01"><defs><style>.cls-1{fill:#0083ca;}</style></defs><title>12</title><path class="cls-1" d="M9,12.73l-1.14,1H14l0.08-1H9Zm-0.1-5.5a0.67,0.67,0,1,0,0-1.33,0.68,0.68,0,0,0-.69.66,0.68,0.68,0,0,0,.69.67M9.3,12.41H9.47c2-1.08,4.36-3,4.36-5.21,0-1.53-1-2.42-2.71-2.42a3.39,3.39,0,0,0-2.19.71V5.58a2.83,2.83,0,0,1,1.43-.37A1.93,1.93,0,0,1,12.5,7.36c0,2.2-2,4.1-3.2,5.05M5.22,5.14v8.58H6.51V4.82Zm-1.57.48V5.94H4.87V5.25Z" transform="translate(-0.69 -0.71)"/><path class="cls-1" d="M9.2,17.72a8.5,8.5,0,1,1,8.5-8.5A8.51,8.51,0,0,1,9.2,17.72Zm0-16.29A7.79,7.79,0,1,0,17,9.21,7.79,7.79,0,0,0,9.2,1.43Z" transform="translate(-0.69 -0.71)"/></svg>