<svg id="Layer_1" data-name="Layer 1" xmlns="http://www.w3.org/2000/svg" viewBox="0 0 17.01 17.01"><defs><style>.cls-1{fill:#0083ca;}</style></defs><title>2</title><path class="cls-1" d="M7.05,13L5.92,14H12l0.08-1H7.05ZM7,7.48A0.67,0.67,0,1,0,7,6.15,0.67,0.67,0,1,0,7,7.48m0.41,5.18H7.53c2-1.08,4.36-3,4.36-5.21,0-1.53-1-2.42-2.71-2.42A3.38,3.38,0,0,0,7,5.74V5.83a2.83,2.83,0,0,1,1.43-.36,1.93,1.93,0,0,1,2.13,2.15c0,2.2-2,4.1-3.2,5.05" transform="translate(-0.71 -0.71)"/><path class="cls-1" d="M9.21,17.72a8.5,8.5,0,1,1,8.5-8.5A8.51,8.51,0,0,1,9.21,17.72Zm0-16.29A7.79,7.79,0,1,0,17,9.21,7.79,7.79,0,0,0,9.21,1.43Z" transform="translate(-0.71 -0.71)"/></svg>