<svg id="Layer_1" data-name="Layer 1" xmlns="http://www.w3.org/2000/svg" viewBox="0 0 17.01 17.01"><defs><style>.cls-1{fill:#0083ca;}</style></defs><title>3</title><path class="cls-1" d="M7.07,7.16a0.64,0.64,0,1,0-.66-0.64,0.65,0.65,0,0,0,.66.64m0.08,6.26a0.65,0.65,0,1,0-.66-0.66,0.64,0.64,0,0,0,.66.66m0.76,0.32v0.13c2.29-.07,4-0.77,4-2.58,0-1.53-1.47-2.09-3-2.2H9c1.47-.11,2.67-1,2.67-2.31s-1-2-2.44-2a3.11,3.11,0,0,0-2.08.67V5.53A3.06,3.06,0,0,1,8.6,5.15a1.52,1.52,0,0,1,1.8,1.7A1.86,1.86,0,0,1,8.48,9H8.33V9.18H8.48a2,2,0,0,1,2.18,2.15c0,1.63-1.14,2.34-2.74,2.41h0Z" transform="translate(-0.71 -0.71)"/><path class="cls-1" d="M9.21,17.72a8.5,8.5,0,1,1,8.5-8.5A8.51,8.51,0,0,1,9.21,17.72Zm0-16.29A7.79,7.79,0,1,0,17,9.21,7.79,7.79,0,0,0,9.21,1.43Z" transform="translate(-0.71 -0.71)"/></svg>