<svg id="Layer_1" data-name="Layer 1" xmlns="http://www.w3.org/2000/svg" viewBox="0 0 17.01 17.01"><defs><style>.cls-1{fill:#0083ca;}</style></defs><title>5</title><path class="cls-1" d="M7.32,5.14l-0.06,1h4.3v-1H7.32ZM7.64,14v0.11C10.11,14,11.79,12.9,11.79,11s-1.3-2.58-3.17-2.58A7.52,7.52,0,0,0,7,8.59L7,9.53a9,9,0,0,1,1.23-.11c1.51,0,2.45.62,2.45,2.06s-1.35,2.34-3,2.5m-0.81-.66a0.47,0.47,0,0,0,.66.07,0.45,0.45,0,0,0,.1-0.65,0.48,0.48,0,0,0-.67-0.08,0.47,0.47,0,0,0-.08.66" transform="translate(-0.71 -0.71)"/><path class="cls-1" d="M9.21,17.72a8.5,8.5,0,1,1,8.5-8.5A8.51,8.51,0,0,1,9.21,17.72Zm0-16.29A7.79,7.79,0,1,0,17,9.21,7.79,7.79,0,0,0,9.21,1.43Z" transform="translate(-0.71 -0.71)"/></svg>