<svg id="Layer_1" data-name="Layer 1" xmlns="http://www.w3.org/2000/svg" viewBox="0 0 17.01 17.01"><defs><style>.cls-1{fill:#0083ca;}</style></defs><title>6</title><path class="cls-1" d="M11.72,6.79a0.67,0.67,0,0,0,.67-0.66,0.67,0.67,0,1,0-.67.66h0ZM9.21,14.09V14C8,13.81,7.35,12.74,7.35,10.55c0-3,1.78-5,3.89-5.32V5.11A5.53,5.53,0,0,0,6,10.47a3.34,3.34,0,0,0,3.2,3.62M9.54,14v0.13a3,3,0,0,0,3-3A2.47,2.47,0,0,0,9.91,8.41a3.26,3.26,0,0,0-2.1.77V9.3a2.32,2.32,0,0,1,1.42-.42c1.35,0,2,.73,2,2.43,0,1.32-.71,2.5-1.68,2.65" transform="translate(-0.71 -0.71)"/><path class="cls-1" d="M9.21,17.72a8.5,8.5,0,1,1,8.5-8.5A8.51,8.51,0,0,1,9.21,17.72Zm0-16.29A7.79,7.79,0,1,0,17,9.21,7.79,7.79,0,0,0,9.21,1.43Z" transform="translate(-0.71 -0.71)"/></svg>