<svg id="Layer_1" data-name="Layer 1" xmlns="http://www.w3.org/2000/svg" viewBox="0 0 17.01 17.01"><defs><style>.cls-1{fill:#0083ca;}</style></defs><title>8</title><path class="cls-1" d="M9.22,14.09c1.66,0,3-.84,3-2.58,0-1.35-1.4-2.12-2.64-2.79S7.65,7.57,7.65,6.54a1.52,1.52,0,0,1,1.73-1.4A1.47,1.47,0,0,1,11,6.89a1.87,1.87,0,0,1-.83,1.63l0.07,0.07A2.12,2.12,0,0,0,11.7,6.74c0-1-.85-1.71-2.33-1.71s-2.69.86-2.69,2.12c0,1.43,1,2,2.24,2.72s2.36,1.3,2.36,2.3c0,1.16-.73,1.81-2.06,1.81a2,2,0,0,1-2-2.24,2,2,0,0,1,.91-1.67L8,10a2.2,2.2,0,0,0-1.58,2c0,1.4,1.27,2.12,2.79,2.12h0Z" transform="translate(-0.71 -0.71)"/><path class="cls-1" d="M9.21,17.72a8.5,8.5,0,1,1,8.5-8.5A8.51,8.51,0,0,1,9.21,17.72Zm0-16.29A7.79,7.79,0,1,0,17,9.21,7.79,7.79,0,0,0,9.21,1.43Z" transform="translate(-0.71 -0.71)"/></svg>