<svg id="Layer_1" data-name="Layer 1" xmlns="http://www.w3.org/2000/svg" viewBox="0 0 17.01 17.01"><defs><style>.cls-1{fill:#0083ca;}</style></defs><title>9</title><path class="cls-1" d="M6.82,13.72a0.67,0.67,0,1,0-.67-0.66,0.65,0.65,0,0,0,.67.66m0.52,0.2v0.14a5.47,5.47,0,0,0,5.19-5.41A3.29,3.29,0,0,0,9.35,5V5.15c1.22,0.15,1.85,1.22,1.85,3.42,0,3-1.77,5.08-3.86,5.34m1.3-3.21a3.07,3.07,0,0,0,2.09-.81V9.77a2.32,2.32,0,0,1-1.42.42c-1.35,0-2-.79-2-2.48A2.35,2.35,0,0,1,9,5.15V5A3,3,0,0,0,6,8a2.56,2.56,0,0,0,2.67,2.75" transform="translate(-0.71 -0.71)"/><path class="cls-1" d="M9.21,17.72a8.5,8.5,0,1,1,8.5-8.5A8.51,8.51,0,0,1,9.21,17.72Zm0-16.29A7.79,7.79,0,1,0,17,9.21,7.79,7.79,0,0,0,9.21,1.43Z" transform="translate(-0.71 -0.71)"/></svg>